# xmcd
#
# Track frame offsets:
#   150
#   17355
#   32575
#   51006
#   67375
#   84065
#   104648
#   121348
#   140748
#   152819
#   167851
#   186369
#   202895
#   216746
#   239280
#   255621
#   278106
#   294413
#   311712
#   325002
#   340790
#
# Disc length: 4752 seconds
#
# Revision: 0
# Processed by: cddbd v1.5PL3 Copyright (c) Steve Scherf et al.
# Submitted via: Media_Universe 3.0
#
DISCID=3a128e15
DTITLE=Lee Ann Womack - Some Things I Know/I Hope You Dance
DYEAR=1900
DGENRE=Country
TTITLE0=Never Again Again
TTITLE1=Man With 18 Wheels
TTITLE2=Don't Tell  Me
TTITLE3=I Keep Forgetting
TTITLE4=When The Wheels Are Coming Off
TTITLE5=Mendocino County Line
TTITLE6=Some Things I Know
TTITLE7=A Little Past Little Rock
TTITLE8=Now You See Me (Now You Don't)
TTITLE9=I'd Rather Have What We Had
TTITLE10=The Man Who Made Mama Cry
TTITLE11=I'll Think Of A Reason Later
TTITLE12=The Healing Kind
TTITLE13=I Hope You Dance
TTITLE14=After I Fall
TTITLE15=Stronger Than I Am
TTITLE16=I Know Why The River Runs
TTITLE17=Why They Call It Falling
TTITLE18=Ashes By Now
TTITLE19=Thinking With My Heart Again
TTITLE20=Lonely Too/Does My Ring Burn Your Finger
EXTD=
EXTT0=
EXTT1=
EXTT2=
EXTT3=
EXTT4=
EXTT5=
EXTT6=
EXTT7=
EXTT8=
EXTT9=
EXTT10=
EXTT11=
EXTT12=
EXTT13=
EXTT14=
EXTT15=
EXTT16=
EXTT17=
EXTT18=
EXTT19=
EXTT20=
PLAYORDER=
